<mxfile host="app.diagrams.net" modified="2023-12-01T03:06:58.423Z" agent="Mozilla/5.0 (Windows NT 10.0; Win64; x64) AppleWebKit/537.36 (KHTML, like Gecko) Chrome/119.0.0.0 Safari/537.36" etag="RZJ0XrBvgzf6o4obbgeM" version="22.1.5" type="github">
  <diagram name="Page-1" id="edf60f1a-56cd-e834-aa8a-f176f3a09ee4">
    <mxGraphModel dx="712" dy="830" grid="1" gridSize="10" guides="1" tooltips="1" connect="1" arrows="1" fold="1" page="1" pageScale="1" pageWidth="1100" pageHeight="850" background="none" math="0" shadow="0">
      <root>
        <mxCell id="0" />
        <mxCell id="1" parent="0" />
        <mxCell id="z0OzMjOG9XoxMUtwCosv-1" value="医生" style="rounded=1;whiteSpace=wrap;html=1;fontSize=16;" vertex="1" parent="1">
          <mxGeometry x="230" y="60" width="130" height="60" as="geometry" />
        </mxCell>
        <mxCell id="z0OzMjOG9XoxMUtwCosv-22" style="edgeStyle=none;curved=1;rounded=0;orthogonalLoop=1;jettySize=auto;html=1;exitX=0.5;exitY=1;exitDx=0;exitDy=0;entryX=0.75;entryY=0;entryDx=0;entryDy=0;fontSize=12;startSize=8;endSize=8;" edge="1" parent="1" source="z0OzMjOG9XoxMUtwCosv-2" target="z0OzMjOG9XoxMUtwCosv-5">
          <mxGeometry relative="1" as="geometry" />
        </mxCell>
        <mxCell id="z0OzMjOG9XoxMUtwCosv-2" value="患者及其他人员" style="rounded=1;whiteSpace=wrap;html=1;fontSize=16;" vertex="1" parent="1">
          <mxGeometry x="490" y="60" width="150" height="60" as="geometry" />
        </mxCell>
        <mxCell id="z0OzMjOG9XoxMUtwCosv-3" value="当前科室" style="rounded=1;whiteSpace=wrap;html=1;fontSize=16;" vertex="1" parent="1">
          <mxGeometry x="230" y="170" width="130" height="50" as="geometry" />
        </mxCell>
        <mxCell id="z0OzMjOG9XoxMUtwCosv-19" value="" style="edgeStyle=none;curved=1;rounded=0;orthogonalLoop=1;jettySize=auto;html=1;fontSize=12;startSize=8;endSize=8;" edge="1" parent="1" source="z0OzMjOG9XoxMUtwCosv-5" target="z0OzMjOG9XoxMUtwCosv-7">
          <mxGeometry relative="1" as="geometry" />
        </mxCell>
        <mxCell id="z0OzMjOG9XoxMUtwCosv-5" value="人工智能辅助诊疗了解程度" style="rounded=0;whiteSpace=wrap;html=1;fontSize=16;" vertex="1" parent="1">
          <mxGeometry x="160" y="290" width="540" height="30" as="geometry" />
        </mxCell>
        <mxCell id="z0OzMjOG9XoxMUtwCosv-23" style="edgeStyle=none;curved=1;rounded=0;orthogonalLoop=1;jettySize=auto;html=1;exitX=0.25;exitY=1;exitDx=0;exitDy=0;entryX=0.5;entryY=0;entryDx=0;entryDy=0;fontSize=12;startSize=8;endSize=8;" edge="1" parent="1" source="z0OzMjOG9XoxMUtwCosv-7" target="z0OzMjOG9XoxMUtwCosv-9">
          <mxGeometry relative="1" as="geometry" />
        </mxCell>
        <mxCell id="z0OzMjOG9XoxMUtwCosv-28" style="edgeStyle=none;curved=1;rounded=0;orthogonalLoop=1;jettySize=auto;html=1;exitX=0.75;exitY=1;exitDx=0;exitDy=0;entryX=0.75;entryY=0;entryDx=0;entryDy=0;fontSize=12;startSize=8;endSize=8;" edge="1" parent="1" source="z0OzMjOG9XoxMUtwCosv-7" target="z0OzMjOG9XoxMUtwCosv-11">
          <mxGeometry relative="1" as="geometry" />
        </mxCell>
        <mxCell id="z0OzMjOG9XoxMUtwCosv-7" value="人工智能辅助诊疗科普" style="rounded=0;whiteSpace=wrap;html=1;fontSize=16;" vertex="1" parent="1">
          <mxGeometry x="160" y="360" width="540" height="30" as="geometry" />
        </mxCell>
        <mxCell id="z0OzMjOG9XoxMUtwCosv-8" style="edgeStyle=none;curved=1;rounded=0;orthogonalLoop=1;jettySize=auto;html=1;fontSize=12;startSize=8;endSize=8;exitX=0.5;exitY=1;exitDx=0;exitDy=0;entryX=0.5;entryY=0;entryDx=0;entryDy=0;" edge="1" parent="1" source="z0OzMjOG9XoxMUtwCosv-1" target="z0OzMjOG9XoxMUtwCosv-3">
          <mxGeometry relative="1" as="geometry">
            <mxPoint x="320" y="370" as="sourcePoint" />
            <mxPoint x="260" y="350" as="targetPoint" />
          </mxGeometry>
        </mxCell>
        <mxCell id="z0OzMjOG9XoxMUtwCosv-24" style="edgeStyle=none;curved=1;rounded=0;orthogonalLoop=1;jettySize=auto;html=1;exitX=0.5;exitY=1;exitDx=0;exitDy=0;fontSize=12;startSize=8;endSize=8;" edge="1" parent="1" source="z0OzMjOG9XoxMUtwCosv-9" target="z0OzMjOG9XoxMUtwCosv-10">
          <mxGeometry relative="1" as="geometry" />
        </mxCell>
        <mxCell id="z0OzMjOG9XoxMUtwCosv-9" value="医院背景" style="rounded=1;whiteSpace=wrap;html=1;fontSize=16;" vertex="1" parent="1">
          <mxGeometry x="215" y="440" width="160" height="60" as="geometry" />
        </mxCell>
        <mxCell id="z0OzMjOG9XoxMUtwCosv-29" style="edgeStyle=none;curved=1;rounded=0;orthogonalLoop=1;jettySize=auto;html=1;exitX=0.5;exitY=1;exitDx=0;exitDy=0;fontSize=12;startSize=8;endSize=8;entryX=0.268;entryY=0.05;entryDx=0;entryDy=0;entryPerimeter=0;" edge="1" parent="1" source="z0OzMjOG9XoxMUtwCosv-10" target="z0OzMjOG9XoxMUtwCosv-11">
          <mxGeometry relative="1" as="geometry">
            <mxPoint x="300" y="620" as="targetPoint" />
          </mxGeometry>
        </mxCell>
        <mxCell id="z0OzMjOG9XoxMUtwCosv-10" value="科室背景" style="rounded=1;whiteSpace=wrap;html=1;fontSize=16;" vertex="1" parent="1">
          <mxGeometry x="230" y="520" width="135" height="60" as="geometry" />
        </mxCell>
        <mxCell id="z0OzMjOG9XoxMUtwCosv-27" style="edgeStyle=none;curved=1;rounded=0;orthogonalLoop=1;jettySize=auto;html=1;exitX=0.5;exitY=1;exitDx=0;exitDy=0;fontSize=12;startSize=8;endSize=8;" edge="1" parent="1" source="z0OzMjOG9XoxMUtwCosv-11" target="z0OzMjOG9XoxMUtwCosv-12">
          <mxGeometry relative="1" as="geometry" />
        </mxCell>
        <mxCell id="z0OzMjOG9XoxMUtwCosv-11" value="信息质量、系统质量认可度调查" style="rounded=1;whiteSpace=wrap;html=1;fontSize=16;arcSize=42;" vertex="1" parent="1">
          <mxGeometry x="140" y="610" width="570" height="60" as="geometry" />
        </mxCell>
        <mxCell id="z0OzMjOG9XoxMUtwCosv-12" value="甄别题" style="rounded=1;whiteSpace=wrap;html=1;fontSize=16;" vertex="1" parent="1">
          <mxGeometry x="345" y="690" width="160" height="60" as="geometry" />
        </mxCell>
        <mxCell id="z0OzMjOG9XoxMUtwCosv-13" value="系统质量调查" style="rounded=1;whiteSpace=wrap;html=1;fontSize=16;" vertex="1" parent="1">
          <mxGeometry x="165" y="770" width="570" height="60" as="geometry" />
        </mxCell>
        <mxCell id="z0OzMjOG9XoxMUtwCosv-14" value="" style="rounded=1;whiteSpace=wrap;html=1;fontSize=16;" vertex="1" parent="1">
          <mxGeometry x="180" y="1050" width="160" height="60" as="geometry" />
        </mxCell>
        <mxCell id="z0OzMjOG9XoxMUtwCosv-15" value="" style="rounded=1;whiteSpace=wrap;html=1;fontSize=16;" vertex="1" parent="1">
          <mxGeometry x="180" y="1130" width="160" height="60" as="geometry" />
        </mxCell>
        <mxCell id="z0OzMjOG9XoxMUtwCosv-21" style="edgeStyle=none;curved=1;rounded=0;orthogonalLoop=1;jettySize=auto;html=1;exitX=0.5;exitY=1;exitDx=0;exitDy=0;entryX=0.25;entryY=0;entryDx=0;entryDy=0;fontSize=12;startSize=8;endSize=8;" edge="1" parent="1" source="z0OzMjOG9XoxMUtwCosv-3" target="z0OzMjOG9XoxMUtwCosv-5">
          <mxGeometry relative="1" as="geometry" />
        </mxCell>
      </root>
    </mxGraphModel>
  </diagram>
</mxfile>
